<svg id="Capa_1" data-name="Capa 1" xmlns="http://www.w3.org/2000/svg" viewBox="0 0 1018 810"><defs><style>.cls-1{fill:#2bc185;}.cls-2{fill:#23a370;}</style></defs><title>Sin título-1</title><polygon class="cls-1" points="38 810 146 410 532 242 492 478 392 564 426 760 342 810 38 810"/><polygon class="cls-2" points="532 810 732 810 796 576 532 242 492 478 577 389 491 589 589 767 532 810"/><polygon class="cls-1" points="0 262 38 364 578 130 596 0 0 262"/><polygon class="cls-2" points="936 568 1018 502 596 0 578 130 936 568"/><path class="cls-2" d="M303.5,73.5" transform="translate(-41.5 -69.5)"/><polyline class="cls-1" points="348 16 331.95 116.08 237.7 157.7 262 4"/><polygon class="cls-2" points="426 26 422 78 332 116 348 16 426 26"/></svg>